Genre:Action | Fantasy | Western
Language:English
IMDb:http://www.imdb.com/title/tt1032751/
Source:PPVRIP IFLIX Thx.


Format : AVI
Format/Info : Audio Video Interleave
File size : 738 MiB
Duration : 1h 38mn
Overall bit rate : 1 044 Kbps


Video
Codec ID/Hint : XviD
Duration : 1h 38mn
Bit rate : 902 Kbps
Width : 720 pixels
Height : 400 pixels
Display aspect ratio : 16:9
Frame rate : 29.970 fps
Color space : YUV
Chroma subsampling : 4:2:0
Bit depth : 8 bits
Scan type : Progressive
Bits/(Pixel*Frame) : 0.105
Stream size : 638 MiB (86%)
Writing library : XviD 1.2.1

Audio
ID : 1
Format : MPEG Audio
Format version : Version 1
Format profile : Layer 3
Mode : Joint stereo
Mode extension : MS Stereo
Codec ID : 55
Codec ID/Hint : MP3
Duration : 1h 38mn
Bit rate mode : Constant
Bit rate : 128 Kbps
Channel(s) : 2 channels
Sampling rate : 44.1 KHz
Stream size : 90.5 MiB (12%)
Alignment : Aligned on interleaves
Interleave, duration : 26 ms (0.78 video frame)
Interleave, preload duration : 522 ms
Writing library : LAME3.98.2


Plot:
A warrior-assassin is forced to hide in a small town in the American Badlands after refusing a mission.




================================== 
http://thepiratebay.org/user/hiest
==================================




Screenshots:
 
http://www.postimg.com/30000/29396.jpg
 
http://www.postimg.com/30000/29397.jpg
 
http://www.postimg.com/30000/29398.jpg
 
http://www.postimg.com/30000/29399.jpg
 
http://www.postimg.com/30000/29400.jpg